HIERARCHY
ROOT Hips
{
	OFFSET 0.000000 105.849998 0.000017
	CHANNELS 6 Xposition Yposition Zposition Yrotation Zrotation Xrotation
	JOINT RightUpLeg
	{
		OFFSET -11.500000 -1.849998 -0.000000
		CHANNELS 3 Yrotation Zrotation Xrotation
		JOINT RightLeg
		{
			OFFSET 0.000000 -48.000000 -0.000008
			CHANNELS 3 Yrotation Zrotation Xrotation
			JOINT RightFoot
			{
				OFFSET 0.000000 -48.000000 -0.000008
				CHANNELS 3 Yrotation Zrotation Xrotation
				End Site
				{
					OFFSET 0.000000 -8.000003 19.599998
				}
			}
		}
	}
	JOINT LeftUpLeg
	{
		OFFSET 11.500000 -1.849998 -0.000000
		CHANNELS 3 Yrotation Zrotation Xrotation
		JOINT LeftLeg
		{
			OFFSET 0.000000 -48.000000 -0.000008
			CHANNELS 3 Yrotation Zrotation Xrotation
			JOINT LeftFoot
			{
				OFFSET 0.000000 -48.000000 -0.000008
				CHANNELS 3 Yrotation Zrotation Xrotation
				End Site
				{
					OFFSET 0.000000 -8.000003 19.599998
				}
			}
		}
	}
	JOINT Spine
	{
		OFFSET 0.000000 16.653999 0.000003
		CHANNELS 3 Yrotation Zrotation Xrotation
		JOINT Spine1
		{
			OFFSET 0.000000 11.311996 0.000002
			CHANNELS 3 Yrotation Zrotation Xrotation
			JOINT Spine2
			{
				OFFSET 0.000000 11.779999 0.000002
				CHANNELS 3 Yrotation Zrotation Xrotation
				JOINT Spine3
				{
					OFFSET 0.000000 11.311996 0.000002
					CHANNELS 3 Yrotation Zrotation Xrotation
					JOINT Neck
					{
						OFFSET 0.000000 12.091003 0.000002
						CHANNELS 3 Yrotation Zrotation Xrotation
						JOINT Head
						{
							OFFSET 0.000000 9.000000 0.000001
							CHANNELS 3 Yrotation Zrotation Xrotation
							End Site
							{
								OFFSET 0.000000 18.000000 0.000003
							}
						}
					}
					JOINT RightShoulder
					{
						OFFSET -3.500000 8.061005 0.000001
						CHANNELS 3 Yrotation Zrotation Xrotation
						JOINT RightArm
						{
							OFFSET -14.000000 0.000000 -0.000000
							CHANNELS 3 Yrotation Zrotation Xrotation
							JOINT RightForeArm
							{
								OFFSET -29.000000 0.000000 -0.000000
								CHANNELS 3 Yrotation Zrotation Xrotation
								JOINT RightHand
								{
									OFFSET -28.000000 0.000000 -0.000000
									CHANNELS 3 Yrotation Zrotation Xrotation
									JOINT RightHandThumb1
									{
										OFFSET -2.702003 0.205994 3.388000
										CHANNELS 3 Yrotation Zrotation Xrotation
										JOINT RightHandThumb2
										{
											OFFSET -3.998001 0.000000 -0.000000
											CHANNELS 3 Yrotation Zrotation Xrotation
											JOINT RightHandThumb3
											{
												OFFSET -2.778000 0.000000 -0.000000
												CHANNELS 3 Yrotation Zrotation Xrotation
												End Site
												{
													OFFSET -2.381996 0.000000 -0.000000
												}
											}
										}
									}
									JOINT RightInHandIndex
									{
										OFFSET -3.500000 0.552002 2.148000
										CHANNELS 3 Yrotation Zrotation Xrotation
										JOINT RightHandIndex1
										{
											OFFSET -5.664001 -0.098999 1.085000
											CHANNELS 3 Yrotation Zrotation Xrotation
											JOINT RightHandIndex2
											{
												OFFSET -3.930000 0.000000 -0.000000
												CHANNELS 3 Yrotation Zrotation Xrotation
												JOINT RightHandIndex3
												{
													OFFSET -2.227997 0.000000 -0.000000
													CHANNELS 3 Yrotation Zrotation Xrotation
													End Site
													{
														OFFSET -1.959999 0.000000 -0.000000
													}
												}
											}
										}
									}
									JOINT RightInHandMiddle
									{
										OFFSET -3.671997 0.561996 0.822000
										CHANNELS 3 Yrotation Zrotation Xrotation
										JOINT RightHandMiddle1
										{
											OFFSET -5.617996 -0.091003 0.341000
											CHANNELS 3 Yrotation Zrotation Xrotation
											JOINT RightHandMiddle2
											{
												OFFSET -4.288002 0.000000 -0.000000
												CHANNELS 3 Yrotation Zrotation Xrotation
												JOINT RightHandMiddle3
												{
													OFFSET -2.688004 0.000000 -0.000000
													CHANNELS 3 Yrotation Zrotation Xrotation
													End Site
													{
														OFFSET -2.143997 0.000000 -0.000000
													}
												}
											}
										}
									}
									JOINT RightInHandRing
									{
										OFFSET -3.653999 0.584000 -0.140000
										CHANNELS 3 Yrotation Zrotation Xrotation
										JOINT RightHandRing1
										{
											OFFSET -5.031998 -0.024002 -0.520000
											CHANNELS 3 Yrotation Zrotation Xrotation
											JOINT RightHandRing2
											{
												OFFSET -3.737000 0.000000 -0.000000
												CHANNELS 3 Yrotation Zrotation Xrotation
												JOINT RightHandRing3
												{
													OFFSET -2.593002 0.000000 -0.000000
													CHANNELS 3 Yrotation Zrotation Xrotation
													End Site
													{
														OFFSET -2.015999 0.000000 -0.000000
													}
												}
											}
										}
									}
									JOINT RightInHandPinky
									{
										OFFSET -3.431999 0.509995 -1.305000
										CHANNELS 3 Yrotation Zrotation Xrotation
										JOINT RightHandPinky1
										{
											OFFSET -4.496002 -0.024002 -1.184000
											CHANNELS 3 Yrotation Zrotation Xrotation
											JOINT RightHandPinky2
											{
												OFFSET -2.993004 0.000000 -0.000000
												CHANNELS 3 Yrotation Zrotation Xrotation
												JOINT RightHandPinky3
												{
													OFFSET -1.890999 0.000000 -0.000000
													CHANNELS 3 Yrotation Zrotation Xrotation
													End Site
													{
														OFFSET -1.786003 0.000000 -0.000000
													}
												}
											}
										}
									}
								}
							}
						}
					}
					JOINT LeftShoulder
					{
						OFFSET 3.500000 8.061005 0.000001
						CHANNELS 3 Yrotation Zrotation Xrotation
						JOINT LeftArm
						{
							OFFSET 14.000000 0.000000 -0.000000
							CHANNELS 3 Yrotation Zrotation Xrotation
							JOINT LeftForeArm
							{
								OFFSET 29.000000 0.000000 -0.000000
								CHANNELS 3 Yrotation Zrotation Xrotation
								JOINT LeftHand
								{
									OFFSET 28.000000 0.000000 -0.000000
									CHANNELS 3 Yrotation Zrotation Xrotation
									JOINT LeftHandThumb1
									{
										OFFSET 2.702003 0.205994 3.388000
										CHANNELS 3 Yrotation Zrotation Xrotation
										JOINT LeftHandThumb2
										{
											OFFSET 3.998001 0.000000 -0.000000
											CHANNELS 3 Yrotation Zrotation Xrotation
											JOINT LeftHandThumb3
											{
												OFFSET 2.778000 0.000000 -0.000000
												CHANNELS 3 Yrotation Zrotation Xrotation
												End Site
												{
													OFFSET 2.381996 0.000000 -0.000000
												}
											}
										}
									}
									JOINT LeftInHandIndex
									{
										OFFSET 3.500000 0.552002 2.148000
										CHANNELS 3 Yrotation Zrotation Xrotation
										JOINT LeftHandIndex1
										{
											OFFSET 5.664001 -0.098999 1.085000
											CHANNELS 3 Yrotation Zrotation Xrotation
											JOINT LeftHandIndex2
											{
												OFFSET 3.930000 0.000000 -0.000000
												CHANNELS 3 Yrotation Zrotation Xrotation
												JOINT LeftHandIndex3
												{
													OFFSET 2.227997 0.000000 -0.000000
													CHANNELS 3 Yrotation Zrotation Xrotation
													End Site
													{
														OFFSET 1.959999 0.000000 -0.000000
													}
												}
											}
										}
									}
									JOINT LeftInHandMiddle
									{
										OFFSET 3.671997 0.561996 0.822000
										CHANNELS 3 Yrotation Zrotation Xrotation
										JOINT LeftHandMiddle1
										{
											OFFSET 5.617996 -0.091003 0.341000
											CHANNELS 3 Yrotation Zrotation Xrotation
											JOINT LeftHandMiddle2
											{
												OFFSET 4.288002 0.000000 -0.000000
												CHANNELS 3 Yrotation Zrotation Xrotation
												JOINT LeftHandMiddle3
												{
													OFFSET 2.688004 0.000000 -0.000000
													CHANNELS 3 Yrotation Zrotation Xrotation
													End Site
													{
														OFFSET 2.143997 0.000000 -0.000000
													}
												}
											}
										}
									}
									JOINT LeftInHandRing
									{
										OFFSET 3.653999 0.584000 -0.140000
										CHANNELS 3 Yrotation Zrotation Xrotation
										JOINT LeftHandRing1
										{
											OFFSET 5.031998 -0.024002 -0.520000
											CHANNELS 3 Yrotation Zrotation Xrotation
											JOINT LeftHandRing2
											{
												OFFSET 3.737000 0.000000 -0.000000
												CHANNELS 3 Yrotation Zrotation Xrotation
												JOINT LeftHandRing3
												{
													OFFSET 2.593002 0.000000 -0.000000
													CHANNELS 3 Yrotation Zrotation Xrotation
													End Site
													{
														OFFSET 2.015999 0.000000 -0.000000
													}
												}
											}
										}
									}
									JOINT LeftInHandPinky
									{
										OFFSET 3.431999 0.509995 -1.305000
										CHANNELS 3 Yrotation Zrotation Xrotation
										JOINT LeftHandPinky1
										{
											OFFSET 4.496002 -0.024002 -1.184000
											CHANNELS 3 Yrotation Zrotation Xrotation
											JOINT LeftHandPinky2
											{
												OFFSET 2.993004 0.000000 -0.000000
												CHANNELS 3 Yrotation Zrotation Xrotation
												JOINT LeftHandPinky3
												{
													OFFSET 1.890999 0.000000 -0.000000
													CHANNELS 3 Yrotation Zrotation Xrotation
													End Site
													{
														OFFSET 1.786003 0.000000 -0.000000
													}
												}
											}
										}
									}
								}
							}
						}
					}
				}
			}
		}
	}
}
MOTION
Frames: 4
Frame Time: 0.041667
0.000000 -0.000001 50.759941 0.000001 -6.547561 2.667271 -2.494460 3.532575 11.954056 0.369669 -0.574917 11.025115 3.488568 2.320135 -2.956093 5.118661 8.575306 -26.131684 -0.306575 0.492781 9.350264 -3.783185 -3.834736 -17.040296 0.238843 5.113268 -0.010665 -0.000000 -0.000000 0.000000 -0.000000 -0.000000 0.000000 -0.000000 -0.000000 0.000000 0.049856 1.070056 -0.000459 -0.000000 -0.000007 -3.131922 -39.678649 6.863034 -5.722277 -36.545299 4.255891 -10.769157 -18.227782 19.321787 -16.089299 -3.975267 11.986676 -3.002424 0.000002 0.000005 0.000000 -0.000003 -0.000002 0.000002 -0.000002 0.000002 0.000002 -0.000004 0.000004 -0.000000 0.000000 0.000008 -0.000001 0.000003 -0.000001 0.000001 -0.000002 -0.000002 -0.000001 0.000001 0.000007 0.000001 0.000000 -0.000005 0.000001 -0.000001 -0.000001 0.000001 0.000001 0.000004 -0.000001 0.000003 0.000004 0.000002 -0.000002 0.000003 0.000000 -0.000001 0.000002 -0.000001 0.000001 0.000001 -0.000004 -0.000005 0.000008 0.000000 0.000001 0.000002 -0.000003 0.000008 -0.000000 0.000000 -0.000002 -0.000000 0.000000 40.321158 6.863046 5.611949 36.737357 1.996815 8.579220 19.420316 5.361853 14.374900 0.000061 -0.000000 0.000018 0.000000 -0.000003 0.000001 0.000000 0.000000 0.000002 -0.000006 0.000002 -0.000001 -0.000013 0.000000 -0.000004 0.000000 -0.000002 0.000001 0.000001 0.000001 0.000000 0.000002 0.000001 0.000000 -0.000012 -0.000003 0.000001 -0.000001 0.000000 -0.000001 -0.000001 0.000001 -0.000001 -0.000004 0.000002 -0.000001 -0.000007 0.000000 0.000003 0.000002 -0.000000 -0.000002 0.000002 -0.000001 -0.000000 -0.000004 -0.000000 0.000002 0.000004 -0.000002 0.000006 -0.000001 -0.000003 0.000002 -0.000000 0.000001 -0.000000 -0.000005 -0.000000 0.000000 
-0.000000 -0.000000 50.433022 0.000003 -6.255799 2.667108 -2.580778 3.345991 10.067897 0.610723 -0.850227 16.922898 3.531710 2.283331 -2.460746 5.026536 8.017676 -28.914253 -0.614902 0.855674 17.007198 -3.914777 -3.670613 3.797474 0.229082 4.885169 -0.009519 0.000000 -0.000000 0.000000 0.000000 -0.000000 0.000000 0.000000 -0.000000 0.000000 0.047642 1.022544 -0.000459 -0.000000 -0.000006 -3.131922 -39.693467 6.557306 -5.467924 -36.572361 4.118909 -10.337839 -18.403550 18.799442 -15.377621 -2.532263 12.728239 -5.396153 0.000004 -0.000003 -0.000001 -0.000003 -0.000003 -0.000002 -0.000000 0.000001 0.000003 -0.000000 -0.000006 -0.000005 0.000006 0.000003 -0.000003 0.000003 -0.000003 -0.000002 -0.000003 0.000000 -0.000001 0.000005 -0.000002 -0.000003 0.000000 0.000001 -0.000002 -0.000000 -0.000002 0.000000 -0.000000 -0.000002 0.000000 0.000005 -0.000005 -0.000005 -0.000000 0.000000 0.000004 0.000001 0.000001 0.000002 0.000002 -0.000001 -0.000003 -0.000001 0.000000 -0.000003 0.000002 -0.000004 0.000003 0.000007 -0.000000 0.000002 0.000002 0.000001 0.000000 40.306907 6.557293 5.360986 36.756038 1.858437 8.149255 19.535996 4.825970 13.710346 0.078995 0.532191 2.367985 0.000003 -0.000001 0.000004 0.000001 -0.000000 0.000003 -0.000008 0.000000 -0.000002 -0.000011 0.000000 -0.000005 -0.000002 -0.000002 0.000000 0.000001 0.000001 -0.000000 -0.000000 -0.000000 -0.000000 -0.000010 -0.000000 0.000003 -0.000003 0.000000 0.000000 -0.000002 0.000001 -0.000004 -0.000004 0.000000 -0.000001 -0.000006 0.000001 -0.000001 0.000003 -0.000003 -0.000004 0.000004 0.000001 -0.000000 -0.000004 0.000000 0.000002 0.000005 -0.000001 0.000002 -0.000000 0.000001 0.000002 -0.000001 0.000000 -0.000001 -0.000006 0.000001 -0.000003 
0.000000 -0.000001 49.733482 -0.000067 -5.360894 2.665830 -2.724584 2.607936 7.501394 1.086349 -1.260463 27.057706 3.609486 2.198967 2.400332 4.797931 6.742998 -31.642887 -1.161891 1.321439 28.406606 -4.056550 -3.331422 -0.097983 0.195356 4.185970 -0.007138 0.000000 0.000000 0.000000 0.000000 0.000000 0.000000 0.000000 0.000000 0.000000 0.040847 0.876687 -0.000459 -0.000000 -0.000006 -3.131922 -39.737521 5.619408 -4.688380 -36.649142 3.697235 -9.014678 -18.898853 17.178160 -13.209061 0.639709 13.965865 -10.679802 0.000002 -0.000002 0.000003 -0.000004 -0.000004 -0.000002 0.000002 -0.000001 -0.000001 0.000000 -0.000008 -0.000002 0.000004 -0.000004 0.000001 0.000004 -0.000003 0.000001 -0.000001 0.000001 -0.000005 0.000003 0.000001 0.000002 -0.000002 -0.000005 0.000002 0.000001 -0.000002 0.000001 0.000001 0.000000 0.000000 0.000006 -0.000004 -0.000001 0.000003 -0.000003 0.000003 0.000003 -0.000000 -0.000002 -0.000001 0.000000 0.000002 -0.000001 -0.000004 -0.000000 -0.000000 0.000003 -0.000005 0.000004 0.000001 -0.000004 -0.000002 0.000002 -0.000003 40.262848 5.619405 4.590809 36.806998 1.432836 6.829884 19.852590 3.167431 11.672710 0.271802 1.518356 7.525883 0.000002 -0.000003 -0.000003 0.000001 -0.000001 0.000001 -0.000008 -0.000000 -0.000003 -0.000013 -0.000001 -0.000005 0.000001 -0.000002 0.000001 0.000001 -0.000000 0.000003 -0.000000 -0.000000 0.000001 -0.000012 -0.000005 0.000000 -0.000001 0.000001 0.000000 -0.000001 0.000001 0.000001 -0.000005 0.000001 0.000002 -0.000008 -0.000003 -0.000003 0.000003 0.000002 -0.000000 0.000001 0.000001 0.000001 -0.000005 -0.000001 0.000000 0.000005 -0.000001 -0.000000 0.000000 0.000001 -0.000001 0.000000 0.000001 -0.000002 -0.000006 -0.000000 -0.000003 
0.000000 -0.000000 49.406578 -0.000093 -4.235054 2.664737 -2.867812 1.598878 5.641827 1.437728 -1.483049 33.766416 3.666997 2.123247 10.119289 4.569695 5.475677 -30.663222 -1.475842 1.504521 34.364905 -4.069572 -3.014433 -6.915207 0.154187 3.306523 -0.004066 0.000000 0.000000 -0.000000 0.000000 0.000000 -0.000000 0.000000 0.000000 -0.000000 0.032285 0.692921 -0.000459 -0.000000 -0.000005 -3.131922 -39.792942 4.439414 -3.708911 -36.732805 3.163821 -7.349790 -19.428449 15.102035 -10.509789 2.063401 14.058379 -13.354493 0.000002 0.000003 0.000000 -0.000005 -0.000001 0.000002 0.000001 -0.000001 0.000000 -0.000001 -0.000000 -0.000004 0.000004 0.000001 0.000001 0.000004 -0.000002 0.000003 -0.000000 -0.000004 0.000003 0.000002 0.000002 0.000002 0.000000 -0.000001 -0.000001 0.000001 -0.000003 0.000002 0.000005 -0.000002 0.000000 0.000003 0.000003 0.000002 0.000000 0.000003 0.000005 0.000001 -0.000001 -0.000000 0.000004 -0.000002 -0.000000 -0.000002 0.000001 -0.000000 -0.000001 0.000000 0.000002 0.000006 0.000005 -0.000001 -0.000002 -0.000000 -0.000003 40.207251 4.439415 3.621058 36.857197 0.895327 5.168963 20.168032 1.053274 9.109062 0.596508 1.564339 10.150879 0.000002 -0.000002 0.000002 0.000002 0.000000 0.000000 -0.000007 -0.000000 0.000001 -0.000014 -0.000002 -0.000002 -0.000000 0.000002 0.000004 0.000000 0.000001 0.000003 -0.000000 0.000001 0.000001 -0.000012 -0.000002 -0.000000 -0.000003 -0.000001 -0.000005 -0.000002 0.000001 -0.000001 -0.000005 0.000002 0.000002 -0.000006 0.000001 0.000002 0.000003 0.000001 0.000002 0.000001 0.000000 -0.000000 -0.000004 -0.000001 -0.000001 0.000006 0.000004 -0.000000 0.000000 0.000001 0.000001 -0.000001 0.000001 0.000002 -0.000007 0.000000 0.000001 
